<svg xmlns="http://www.w3.org/2000/svg" width="168" height="53" viewBox="0 0 168 53">
    <g fill="#FFF" fill-rule="evenodd">
        <path d="M10.812 46.244c-3.436-2.599-5.254-4.507-6.972-7.266C1.364 34.948 0 30.068 0 25.243 0 11.297 10.71 0 24 0c13.237 0 24 11.297 24 25.19 0 5.728-1.87 11.455-5.154 15.699-1.365 1.801-2.526 2.862-5.659 5.355V31.5h2.374v10.076c1.768-2.174 2.627-3.5 3.487-5.09 1.769-3.289 2.728-7.373 2.728-11.296 0-12.727-9.751-23.07-21.776-23.07-12.076 0-21.776 10.343-21.776 23.229 0 5.886 1.97 11.083 6.163 16.227V31.501h2.425v14.743zm4.749 2.545c-.455-.106-1.515-.636-2.374-1.114V31.501h2.374V48.79zm4.8 1.326c-.858-.158-.909-.158-1.212-.265-.253-.053-.354-.053-1.163-.265v-34.47h2.375v35zm4.8.212c-.353.053-.455.053-.959.053-.757 0-1.01 0-1.415-.053V15.115h2.375v35.212zm4.801-.795c-.758.265-1.414.425-2.376.636V15.115h2.376v34.417zm.05-36.273L24 8.379l-6.014 4.88-1.313-1.805L24 5.463l7.325 5.991-1.313 1.805zm4.8 34.416c-.758.372-1.213.584-2.425 1.167v-17.34h2.425v16.173zM62.212 10.336V3.587c.702-.266 1.053-.318 1.553-.318 1.807 0 2.859 1.274 2.859 3.401 0 2.498-1.002 3.666-3.16 3.666h-1.252zM61.06 2.259H58v1.116l1.704.318v15.465L58 19.477v1.063h2.908c.502 0 1.154 0 2.006.053h1.554c1.655 0 2.558-.106 3.31-.425 1.654-.691 2.708-2.39 2.708-4.411 0-2.604-1.405-4.357-4.012-4.943 2.055-1.063 3.009-2.39 3.009-4.25 0-2.71-1.905-4.465-4.763-4.465-.201 0-.803.052-1.556.107l-2.105.053zm1.153 9.353h1.103c2.908 0 4.263 1.222 4.263 3.827 0 2.497-1.455 4.038-3.813 4.038-.7 0-1.052-.107-1.553-.425v-7.44zm15.244-4.358c-3.01 0-5.065 2.87-5.065 7.016 0 3.88 1.955 6.535 4.813 6.535 3.009 0 5.065-2.816 5.065-7.014 0-3.933-1.956-6.537-4.813-6.537zm-.102 1.276c1.405 0 2.207 1.754 2.207 4.941 0 3.987-.802 6.006-2.306 6.006-1.404 0-2.207-1.913-2.207-5.314 0-3.562.852-5.633 2.306-5.633zM93 13.843c-.05-4.41-1.405-6.536-4.212-6.536-2.909 0-4.664 2.657-4.664 7.068 0 4.146 1.705 6.43 4.714 6.43 1.955 0 2.858-.69 4.112-3.082l-1.104-.478c-.751 1.222-1.403 1.7-2.307 1.7-1.805 0-2.657-1.487-2.908-5.102H93zm-6.369-1.274c.302-2.764.903-3.986 2.056-3.986 1.155 0 1.655 1.116 1.756 3.986H86.63zM63.816 47.696V46.58l-1.455-.317V30.797l1.506-.319v-1.117H58.1v1.17l1.604.266v15.518l-1.604.318v1.063h5.716zm13.037 0V46.58l-1.303-.317v-8.238c0-2.179-1.054-3.455-2.959-3.455-1.102 0-1.805.319-3.31 1.542v-1.594h-.702l-3.109.85v1.063l1.454.213v9.672l-1.454.318v1.063h5.165V46.58l-1.303-.317v-8.663c.952-.85 1.605-1.17 2.357-1.17.952 0 1.403.692 1.403 2.18v7.758l-1.303.266v1.063h5.064zm11.735-11.373v-1.54l-2.056.052h-.452c-.2.053-.4.053-.452.053-.25 0-.602-.053-1.102-.211-.904-.213-1.104-.266-1.605-.266-2.356 0-4.162 1.912-4.162 4.41 0 1.648.55 2.657 2.056 3.667-1.605 1.062-2.257 1.913-2.257 2.87 0 .744.402 1.221 1.405 1.647-1.455 1.01-1.956 1.7-1.956 2.765 0 1.646 1.755 2.71 4.462 2.71 3.611 0 5.968-1.808 5.968-4.624 0-1.967-1.103-2.923-3.46-3.03l-3.01-.159c-.751-.054-1.052-.212-1.052-.532 0-.318.351-.743.953-1.17.451.161.852.214 1.354.214 2.406 0 4.212-1.807 4.212-4.25 0-1.012-.2-1.65-.902-2.606h2.056zm-5.567-.796c1.203 0 1.805 1.116 1.805 3.453 0 1.966-.551 2.977-1.704 2.977-1.204 0-1.705-1.01-1.705-3.242 0-2.179.501-3.188 1.604-3.188zm-.752 11.743c3.86.266 4.412.48 4.412 1.596 0 1.275-1.553 2.178-3.611 2.178-1.653 0-2.656-.69-2.656-1.86 0-.797.251-1.328.902-1.967l.953.053zM93.558 39.99c.307-2.835.972-4.012 2.148-4.012 1.177 0 1.688 1.23 1.74 4.012h-3.888zm13.555-19.31v-1.124l-1.33-.267v-8.077c0-2.408-1.023-3.637-3.018-3.637-1.075 0-1.893.373-3.325 1.551V1.05h-.716l-3.17.694v.91l1.431.32V19.29l-1.534.32v1.07h5.217v-1.123l-1.228-.267v-8.613c1.023-.908 1.586-1.176 2.354-1.176 1.073 0 1.483.696 1.483 2.621v7.222l-1.228.267v1.07h5.064zm5.575-13.212h-.767l-3.069.855v.857l1.483.267v9.842l-1.483.32v1.07h5.677v-1.123l-1.79-.267v-7.006c0-.75.717-1.766 1.586-2.248l1.33.75c.665-.536.972-1.017.972-1.605 0-.963-.562-1.552-1.483-1.552-.92 0-1.433.482-2.456 2.3v-2.46zm7.623-6.418c-.923 0-1.638.748-1.638 1.71 0 .963.715 1.712 1.638 1.712.92 0 1.636-.749 1.636-1.711 0-.963-.717-1.711-1.636-1.711zm2.863 19.63v-1.124l-1.432-.267V7.575h-.614l-3.223.855v.91l1.382.32v9.63l-1.382.32v1.07h5.269zm-23.068 20.54c-.103-1.765-.154-2.62-.36-3.316-.612-2.086-1.942-3.21-3.988-3.21-2.967 0-4.758 2.62-4.758 7.06 0 4.12 1.74 6.527 4.81 6.527 1.994 0 3.068-.803 4.243-3.101l-1.123-.483c-.769 1.23-1.434 1.712-2.405 1.712-1.841 0-2.711-1.498-2.967-5.19h6.548zm6.802 6.794V46.89l-1.38-.32V28.33h-.666l-3.223.748v.909l1.433.161v16.476l-1.483.32v1.07h5.319zm13.351 0V46.89l-1.381-.32v-8.238c0-2.193-1.075-3.423-2.967-3.423-1.178 0-1.996.374-3.376 1.551v-8.13h-.665l-3.223.748v.909l1.432.268v16.369l-1.483.32v1.07h5.166V46.89l-1.227-.32v-8.559c1.022-.91 1.636-1.23 2.353-1.23 1.073 0 1.483.695 1.483 2.62v7.275l-1.227.267v1.071h5.115zM131 41.22c-.102-1.765-.154-2.62-.359-3.316-.614-2.086-1.942-3.21-3.988-3.21-2.968 0-4.759 2.62-4.759 7.06 0 4.12 1.74 6.527 4.81 6.527 1.995 0 3.068-.803 4.245-3.101l-1.126-.483c-.767 1.23-1.432 1.712-2.404 1.712-1.84 0-2.71-1.498-2.966-5.19H131zm-6.547-1.23c.306-2.835.972-4.012 2.148-4.012 1.176 0 1.688 1.23 1.739 4.012h-3.887zM141.897 8.477c1.232 0 1.846 1.13 1.846 3.497 0 1.99-.564 3.011-1.743 3.011-1.23 0-1.744-1.022-1.744-3.28 0-2.205.514-3.228 1.641-3.228zm-6.256 12.317v-1.13l-1.332-.322v-8.336c0-2.206-1.077-3.497-3.027-3.497-1.128 0-1.846.323-3.384 1.56V7.455h-.718l-3.18.861v1.075l1.487.216v9.79l-1.487.322v1.075h5.281v-1.13l-1.332-.322v-8.767c.975-.86 1.64-1.184 2.41-1.184.974 0 1.436.7 1.436 2.205v7.854l-1.333.269v1.075h5.179zm11.949-11.51v-1.56l-2.103.053h-.461c-.205.055-.411.055-.462.055-.257 0-.615-.055-1.128-.215-.923-.216-1.129-.27-1.641-.27-2.41 0-4.256 1.937-4.256 4.465 0 1.667.564 2.69 2.103 3.711-1.642 1.076-2.309 1.936-2.309 2.852 0 .752.411 1.29 1.436 1.72-1.436.968-2 1.721-2 2.798 0 1.667 1.795 2.743 4.564 2.743 3.693 0 6.103-1.829 6.103-4.68 0-1.99-1.128-2.958-3.538-3.066l-3.078-.161c-.768-.054-1.076-.215-1.076-.592 0-.27.36-.7.975-1.129.46.16.872.215 1.383.215 2.462 0 4.307-1.83 4.307-4.304 0-1.021-.204-1.667-.922-2.635h2.103zm-7.436 11.026c5.076.323 5.487.43 5.487 1.668 0 1.237-1.59 2.206-3.692 2.206-1.693 0-2.718-.7-2.718-1.884 0-.805.256-1.344.923-1.99zm17.948-6.294c-.05-4.463-1.435-6.615-4.307-6.615-2.975 0-4.769 2.69-4.769 7.154 0 4.196 1.744 6.508 4.82 6.508 2 0 2.923-.699 4.206-3.12l-1.129-.484c-.77 1.238-1.435 1.722-2.358 1.722-1.847 0-2.72-1.506-2.975-5.165h6.512zm-6.512-1.289c.307-2.797.923-4.035 2.102-4.035 1.18 0 1.693 1.13 1.796 4.035h-3.898zm12.462-5.218h-.77l-3.077.86v.861l1.487.27v9.896l-1.487.323v1.075h5.693v-1.13l-1.796-.268v-7.045c0-.755.72-1.776 1.59-2.26l1.334.753c.666-.538.974-1.022.974-1.614 0-.968-.564-1.56-1.487-1.56-.924 0-1.436.484-2.461 2.313V7.509zm-29.488 20.978c-.974 0-1.743.806-1.743 1.775 0 .968.718 1.72 1.64 1.72.924 0 1.693-.806 1.693-1.775 0-.914-.718-1.72-1.59-1.72zm2.77 19.794v-1.13l-1.436-.322V35.103h-.616l-3.23.86v.86l1.384.323v9.737l-1.384.321v1.077h25.384v-1.13L156 46.828v-7.908c0-2.69-.923-3.818-3.128-3.818-1.334 0-2.205.483-3.538 1.774-.719-1.182-1.59-1.72-2.872-1.72-1.232 0-2.205.43-3.488 1.56V34.94h-.667l-3.23.86v.916l1.487.268v9.898l-1.488.321v1.077h5.231v-1.13l-1.178-.322v-8.66c.871-.914 1.486-1.238 2.307-1.238 1.128 0 1.642.754 1.642 2.42v7.532l-1.437.321v1.077h5.179v-1.13l-1.282-.322v-8.606c1.027-.968 1.591-1.292 2.41-1.292 1.077 0 1.54.7 1.54 2.475v7.477l-1.386.321v1.077h5.334-20.103z"/>
    </g>
</svg>
