<?xml version="1.0" encoding="utf-8"?>
<!-- Generator: Adobe Illustrator 24.1.0, SVG Export Plug-In . SVG Version: 6.00 Build 0)  -->
<svg version="1.1" id="Layer_1" xmlns="http://www.w3.org/2000/svg" xmlns:xlink="http://www.w3.org/1999/xlink" x="0px" y="0px"
	 viewBox="0 0 74 74" style="enable-background:new 0 0 74 74;" xml:space="preserve">
<style type="text/css">
	.st0{fill:none;stroke:#00A192;stroke-width:2;stroke-linecap:round;stroke-linejoin:round;}
	.st1{fill:none;stroke:#65E53D;stroke-width:2;stroke-linecap:round;stroke-linejoin:round;}
</style>
<g>
	<path class="st0" d="M60.4,21h1.1v31.6c0,0.6-0.5,1.1-1.1,1.1H43.1c-1,0-1.8,0.6-2.1,1.5l-0.1,0.3c-0.3,0.9-1.2,1.5-2.1,1.5h-3.5
		c-1,0-1.8-0.6-2.1-1.5l-0.1-0.3c-0.3-0.9-1.2-1.5-2.1-1.5H13.6c-0.6,0-1.1-0.5-1.1-1.1V21h1.1"/>
	<path class="st0" d="M56.5,39.5v9c0,0.6-0.5,1.1-1.1,1.1H41.7c-1.2,0-2.3,0.5-3.1,1.3l-2,2.1l-2-2.1c-0.8-0.8-2-1.3-3.1-1.3H17.6
		c-0.6,0-1.1-0.5-1.1-1.1V18.1c0-0.6,0.5-1.1,1.1-1.1h13.7c1.2,0,5.2,3.4,5.2,3.4s4-3.4,5.2-3.4h13.7c0.6,0,1.1,0.5,1.1,1.1V39.5z
		 M37,20v27"/>
	<path class="st1" d="M22.5,27.5h9 M22.5,32.5h9 M22.5,37.5h9 M42.5,27.5h9 M42.5,32.5h9 M42.5,37.5h9"/>
</g>
</svg>
