<?xml version="1.0" encoding="utf-8"?>
<!-- Generator: Adobe Illustrator 24.1.0, SVG Export Plug-In . SVG Version: 6.00 Build 0)  -->
<svg version="1.1" id="Layer_1" xmlns="http://www.w3.org/2000/svg" xmlns:xlink="http://www.w3.org/1999/xlink" x="0px" y="0px"
	 viewBox="0 0 74 74" style="enable-background:new 0 0 74 74;" xml:space="preserve">
<style type="text/css">
	.st0{fill:none;stroke:#FFFFFF;stroke-width:2;stroke-linecap:round;stroke-linejoin:round;}
	.st1{fill:none;stroke:#FAEE4D;stroke-width:2;stroke-linecap:round;stroke-linejoin:round;}
</style>
<g>
	<path class="st0" d="M60.3,20.6h1.1v32c0,0.6-0.5,1.1-1.1,1.1H43c-1,0-1.8,0.6-2.1,1.5l-0.1,0.3c-0.3,0.9-1.2,1.5-2.1,1.5h-3.5
		c-1,0-1.8-0.6-2.1-1.5l-0.1-0.3c-0.3-0.9-1.2-1.5-2.1-1.5H13.7c-0.6,0-1.1-0.5-1.1-1.1v-32h1.1"/>
	<path class="st0" d="M57,39.2v8.9c0,0.6-0.5,1.1-1.1,1.1H42.2c-1.2,0-2.3,0.5-3.1,1.3l-2,2l-2-2c-0.8-0.8-2-1.3-3.1-1.3H18.1
		c-0.6,0-1.1-0.5-1.1-1.1v-30c0-0.6,0.5-1.1,1.1-1.1h13.7c1.2,0,5.2,3.3,5.2,3.3s4-3.3,5.2-3.3h13.7c0.6,0,1.1,0.5,1.1,1.1L57,39.2
		L57,39.2z M37,20.6v26.7"/>
	<path class="st1" d="M22.3,27.2h8.9 M22.3,32.6h8.9 M22.3,37.9h8.9 M42.8,27.2h8.9 M42.8,32.6h8.9 M42.8,37.9h8.9"/>
</g>
</svg>
