<svg xmlns="http://www.w3.org/2000/svg" xmlns:xlink="http://www.w3.org/1999/xlink" width="39" height="39" viewBox="0 0 39 39">
<style type="text/css">
	.st0{fill-rule:evenodd;clip-rule:evenodd;fill:#00A192;}
	.st1{fill-rule:evenodd;clip-rule:evenodd;fill:#FFFFFF;}
</style>
<g>
	<g>
		<path id="prefix__a" class="st0" d="M19.8,0.8C9.3,0.8,0.8,9.3,0.8,19.8c0,10.4,8.5,18.9,18.9,18.9c10.4,0,18.9-8.5,18.9-18.9
			C38.7,9.3,30.2,0.8,19.8,0.8z"/>
		<path id="prefix__a_1_" class="st1" d="M24.5,20.4h-3.1v11h-4.6v-11h-2.2v-3.9h2.2V14c0-1.8,0.9-4.6,4.6-4.6l3.4,0v3.8h-2.5
			c-0.4,0-1,0.2-1,1.1v2.3h3.5C24.9,16.5,24.5,20.4,24.5,20.4z"/>
	</g>
</g>
<g>
</g>
</svg>
