<svg xmlns="http://www.w3.org/2000/svg" xmlns:xlink="http://www.w3.org/1999/xlink" width="170" height="57" viewBox="0 0 170 57">
    <defs>
        <path id="prefix__a" d="M0.06 0.601L55.229 0.601 55.229 56.611 0.06 56.611z"/>
    </defs>
    <g fill="none" fill-rule="evenodd">
        <circle cx="27.5" cy="28.5" r="27.5" fill="#FFF"/>
        <path fill="#006063" d="M66.125.803L66.125 22.162 78.896 22.162 78.896 27.008 60.362 27.008 60.362.803 66.125.803M93.503 27.007v-2.643h-.11c-.661 1.102-1.518 1.897-2.569 2.385-1.053.49-2.129.735-3.23.735-1.395 0-2.538-.184-3.432-.551-.892-.367-1.596-.887-2.109-1.559-.514-.674-.875-1.492-1.083-2.459-.208-.967-.312-2.037-.312-3.213V8.032h5.211v10.717c0 1.567.244 2.735.735 3.504.488.772 1.357 1.156 2.605 1.156 1.419 0 2.446-.422 3.083-1.265.636-.844.954-2.233.954-4.166V8.032h5.212v18.975h-4.955M106.559 8.033v2.643h.11c.66-1.102 1.517-1.903 2.569-2.405 1.05-.502 2.129-.752 3.23-.752 1.394 0 2.538.19 3.43.569.894.379 1.598.906 2.112 1.578.513.674.874 1.492 1.082 2.459.208.967.312 2.037.312 3.211v11.672h-5.212V16.291c0-1.567-.245-2.735-.733-3.506-.49-.77-1.358-1.156-2.606-1.156-1.419 0-2.447.422-3.083 1.267-.637.844-.955 2.233-.955 4.164v9.948h-5.211V8.033h4.955M133.279 22.093c.562-.295 1.028-.686 1.395-1.176.367-.488.642-1.045.826-1.67.183-.623.274-1.277.274-1.963 0-.783-.073-1.523-.219-2.22-.147-.698-.393-1.315-.735-1.854-.342-.537-.795-.965-1.357-1.283-.564-.318-1.274-.479-2.129-.479-.734 0-1.365.149-1.891.442-.526.293-.966.691-1.32 1.193-.355.5-.614 1.076-.771 1.725-.16.648-.239 1.326-.239 2.037 0 .684.067 1.363.201 2.037.135.672.368 1.277.698 1.816.33.538.765.979 1.302 1.321.54.344 1.212.513 2.02.513.734 0 1.382-.146 1.945-.439m7.139 6.312c-.209.979-.656 1.891-1.34 2.735-.685.843-1.677 1.558-2.972 2.146-1.298.588-3.036.881-5.213.881-.93 0-1.877-.117-2.844-.35-.967-.232-1.848-.591-2.643-1.082-.795-.49-1.455-1.119-1.981-1.89-.527-.77-.826-1.694-.9-2.77h5.175c.245.979.722 1.657 1.432 2.038.709.378 1.528.568 2.459.568 1.468 0 2.538-.442 3.21-1.323.674-.88.998-1.994.973-3.339v-2.494h-.073c-.562 1.002-1.364 1.742-2.404 2.218-1.04.479-2.135.717-3.284.717-1.419 0-2.643-.25-3.671-.752s-1.871-1.187-2.531-2.056c-.662-.868-1.145-1.883-1.451-3.045-.305-1.162-.459-2.393-.459-3.69 0-1.222.177-2.404.533-3.541.354-1.138.875-2.14 1.56-3.01.684-.869 1.535-1.56 2.551-2.074 1.014-.513 2.184-.769 3.504-.769 1.248 0 2.343.232 3.285.697.941.465 1.73 1.248 2.367 2.348h.073V8.036h4.956V25.8c0 .758-.105 1.627-.312 2.605M148.551 22.672c.232.404.531.734.898.99.367.258.788.447 1.268.571.476.123.972.183 1.486.183.367 0 .752-.043 1.156-.129.403-.086.77-.22 1.1-.404.33-.184.605-.428.826-.734.221-.305.33-.69.33-1.157 0-.781-.519-1.369-1.558-1.761-1.041-.391-2.491-.782-4.35-1.174-.761-.17-1.5-.373-2.221-.606-.722-.232-1.363-.537-1.926-.918-.564-.379-1.016-.855-1.359-1.431-.342-.575-.513-1.278-.513-2.11 0-1.222.238-2.226.715-3.009.478-.784 1.107-1.401 1.89-1.854.783-.451 1.664-.77 2.643-.953.978-.184 1.982-.275 3.009-.275 1.028 0 2.026.097 2.993.292.964.196 1.828.528 2.585.991.76.465 1.389 1.084 1.891 1.853.502.772.801 1.744.9 2.918h-4.955c-.074-1.002-.454-1.681-1.138-2.037-.686-.353-1.492-.531-2.422-.531-.293 0-.611.017-.955.055-.342.037-.655.117-.936.238-.281.123-.519.301-.715.533-.197.232-.293.545-.293.936 0 .464.17.843.514 1.136.342.295.789.533 1.338.717.551.184 1.182.348 1.891.494.709.149 1.431.307 2.166.479.757.172 1.498.379 2.22.623.721.246 1.364.568 1.926.972.563.405 1.016.907 1.359 1.506.341.6.514 1.338.514 2.219 0 1.248-.252 2.295-.754 3.139-.503.843-1.156 1.523-1.963 2.037-.806.513-1.73.875-2.771 1.082-1.039.209-2.098.312-3.174.312-1.102 0-2.179-.109-3.23-.33-1.051-.22-1.99-.588-2.807-1.101-.82-.514-1.493-1.194-2.02-2.037-.525-.844-.812-1.903-.861-3.174h4.953c0 .562.117 1.045.35 1.449"/>
        <path fill="#00A192" d="M10.004 33.261c0 .98.378 1.843 1.137 2.592.758.748 1.735 1.124 2.929 1.124 1.391 0 2.77-.643 4.138-1.929l-4.606-5.906c-2.401 1.015-3.598 2.388-3.598 4.119M18.016 21.253c0-.483-.195-.902-.582-1.256-.389-.353-.855-.531-1.4-.531-.52 0-.975.152-1.366.452-.386.302-.58.669-.58 1.106 0 .447.533 1.345 1.598 2.687 1.553-.706 2.33-1.527 2.33-2.458M39.543 23.711c1.066-1.342 1.598-2.24 1.598-2.688 0-.436-.194-.803-.58-1.105-.391-.3-.844-.452-1.366-.452-.545 0-1.009.178-1.398.531-.389.354-.584.773-.584 1.256 0 .931.777 1.752 2.33 2.458M44.089 35.853c.759-.749 1.138-1.612 1.138-2.592 0-1.732-1.199-3.105-3.598-4.119l-4.608 5.906c1.369 1.286 2.747 1.929 4.137 1.929 1.196 0 2.171-.376 2.931-1.124"/>
        <mask id="prefix__b" fill="#fff">
            <use xlink:href="#prefix__a"/>
        </mask>
        <path fill="#00A192" d="M26.361 37.242h2.508l1.985-2.529c-1.069-1.227-2.042-2.77-2.922-4.634h-.635c-.879 1.864-1.852 3.407-2.92 4.634l1.984 2.529" mask="url(#prefix__b)"/>
        <path fill="#00A192" d="M30.854.616l-.158 25.52c.695 1.614 1.692 3.317 2.99 5.11l3.441-4.439c-2.805-1.451-4.207-3.313-4.207-5.589 0-1.462.615-2.665 1.844-3.609 1.228-.942 2.77-1.414 4.623-1.414 1.83 0 3.386.472 4.667 1.414 1.281.944 1.92 2.288 1.92 4.033 0 1.497-.631 2.989-1.894 4.475 2.467 1.204 4.197 2.436 5.188 3.695.991 1.263 1.488 2.678 1.488 4.248 0 2.038-.779 3.807-2.34 5.304-1.559 1.497-3.653 2.247-6.283 2.247-2.897 0-5.499-1.05-7.803-3.148l-2.191 2.723h-9.047L20.9 38.463c-2.304 2.098-4.906 3.148-7.804 3.148-2.629 0-4.723-.75-6.282-2.247-1.56-1.497-2.339-3.266-2.339-5.304 0-1.57.496-2.985 1.486-4.248.991-1.259 2.721-2.491 5.189-3.695-1.263-1.486-1.894-2.978-1.894-4.475 0-1.745.639-3.089 1.92-4.033 1.281-.942 2.836-1.414 4.667-1.414 1.853 0 3.395.472 4.623 1.414 1.229.944 1.844 2.147 1.844 3.609 0 2.276-1.404 4.138-4.207 5.589l3.441 4.439c1.267-1.749 2.245-3.414 2.936-4.996V.601C10.707 2.187 0 14.075 0 28.514c0 15.518 12.364 28.097 27.615 28.097 15.25 0 27.614-12.579 27.614-28.097 0-14.402-10.653-26.267-24.375-27.898" mask="url(#prefix__b)"/>
        <path fill="#006063" d="M85.627 47.489c-.587.31-1.213.47-1.877.482-.883.015-1.61-.257-2.186-.816-.573-.56-.866-1.179-.877-1.862-.011-.606.141-1.165.459-1.674.315-.511.972-1.106 1.971-1.786l3.938 4.627c-.366.376-.84.72-1.428 1.029m-2.225-13.961c.316-.202.658-.306 1.025-.311.591-.012 1.033.149 1.329.48.296.331.447.712.455 1.141.01.589-.223 1.139-.697 1.652-.246.276-.657.615-1.23 1.017-.595-.681-.978-1.155-1.157-1.423-.277-.406-.42-.797-.426-1.171-.013-.625.223-1.087.701-1.385m9.653 10.249c.516-1.29.798-2.563.841-3.817l-3.539.062c.001.634-.084 1.239-.258 1.808-.174.572-.428 1.105-.758 1.594l-3.025-3.538c1.111-.666 1.949-1.382 2.517-2.15.566-.767.838-1.759.817-2.975-.023-1.346-.526-2.445-1.507-3.292-.984-.848-2.215-1.259-3.697-1.233-1.622.028-2.935.473-3.939 1.336-1.005.863-1.494 2.045-1.467 3.548.014.757.189 1.483.527 2.177.338.693.813 1.372 1.42 2.033l-.429.274c-1.382.891-2.374 1.786-2.974 2.682-.601.897-.889 1.964-.867 3.204.025 1.502.643 2.859 1.851 4.069 1.21 1.21 2.87 1.795 4.981 1.759 1.403-.025 2.639-.323 3.702-.894.599-.32 1.24-.81 1.927-1.468l1.463 1.722 4.825-.085-3.817-4.406c.652-.88 1.122-1.684 1.406-2.41M96.674 30.465L103.098 30.465 109.193 40.758 115.252 30.465 121.64 30.465 111.968 46.524 111.968 56.525 106.237 56.525 106.237 46.378 96.674 30.465M122.924 49.316c.145.718.395 1.364.748 1.935.352.572.821 1.028 1.405 1.369.584.341 1.315.511 2.191.511.876 0 1.611-.17 2.208-.511.595-.341 1.07-.797 1.423-1.369.353-.571.602-1.217.749-1.935.145-.716.218-1.453.218-2.208 0-.754-.073-1.496-.218-2.226-.147-.73-.396-1.374-.749-1.935-.353-.559-.828-1.015-1.423-1.368-.597-.352-1.332-.529-2.208-.529-.876 0-1.607.177-2.191.529-.584.353-1.053.809-1.405 1.368-.353.561-.603 1.205-.748 1.935-.147.73-.219 1.472-.219 2.226 0 .755.072 1.492.219 2.208zm-4.709-6.314c.462-1.229 1.119-2.274 1.972-3.139.851-.863 1.873-1.533 3.065-2.008 1.192-.474 2.531-.711 4.016-.711 1.483 0 2.828.237 4.033.711 1.204.475 2.232 1.145 3.084 2.008.851.865 1.509 1.91 1.971 3.139.461 1.23.693 2.598.693 4.106 0 1.509-.232 2.871-.693 4.088-.462 1.217-1.12 2.258-1.971 3.121-.852.865-1.88 1.528-3.084 1.99-1.205.462-2.55.693-4.033.693-1.485 0-2.824-.231-4.016-.693-1.192-.462-2.214-1.125-3.065-1.99-.853-.863-1.51-1.904-1.972-3.121-.462-1.217-.693-2.579-.693-4.088 0-1.508.231-2.876.693-4.106zM152.97 56.525v-2.628h-.11c-.657 1.095-1.508 1.886-2.555 2.373-1.046.487-2.116.73-3.212.73-1.387 0-2.525-.183-3.412-.548-.889-.365-1.588-.882-2.099-1.551-.512-.669-.871-1.484-1.077-2.445-.207-.961-.311-2.026-.311-3.194V37.655h5.184v10.657c0 1.558.242 2.72.729 3.487.487.766 1.351 1.149 2.592 1.149 1.411 0 2.433-.42 3.066-1.258.633-.84.949-2.221.949-4.143v-9.892h5.184v18.87h-4.928M166.15 10.515h.285c.332 0 .601-.111.601-.379 0-.237-.174-.396-.554-.396-.158 0-.269.016-.332.032v.743zm-.015 1.47h-.601V9.393c.237-.048.569-.079.996-.079.491 0 .71.079.901.189.141.111.252.316.252.569 0 .285-.221.506-.536.601v.032c.251.094.394.284.473.632.08.395.126.553.191.648h-.649c-.079-.095-.126-.332-.206-.632-.047-.285-.205-.411-.537-.411h-.284v1.043zm-1.597-1.359c0 1.153.855 2.07 2.023 2.07 1.139 0 1.975-.917 1.975-2.054 0-1.155-.836-2.087-1.991-2.087-1.152 0-2.007.932-2.007 2.071zm4.662 0c0 1.47-1.153 2.623-2.655 2.623-1.484 0-2.67-1.153-2.67-2.623 0-1.438 1.186-2.592 2.67-2.592 1.502 0 2.655 1.154 2.655 2.592z"/>
    </g>
</svg>
