<svg xmlns="http://www.w3.org/2000/svg" width="131" height="49" viewBox="0 0 131 49">
    <g fill="#FFF" fill-rule="evenodd">
        <path fill-rule="nonzero" d="M51.356.21L51.356 18.053 61.203 18.053 61.203 22.146 46.916 22.146 46.916.21zM72.498 22.146v-2.204H72.4c-.483.945-1.158 1.575-2.027 1.994-.773.42-1.641.63-2.51.63-1.062 0-1.93-.105-2.607-.42-.675-.315-1.255-.734-1.64-1.26-.387-.524-.676-1.259-.87-2.098-.193-.84-.193-1.68-.193-2.73V6.194h4.055v9.026c0 1.26.193 2.31.58 2.939.385.63 1.061.944 2.026.944 1.062 0 1.931-.314 2.414-1.05.482-.734.772-1.888.772-3.463V6.193h3.861V22.04h-3.764v.105zM82.537 6.193v2.204h.097c.482-.945 1.158-1.575 2.027-1.995.772-.42 1.641-.63 2.51-.63 1.062 0 1.93.21 2.606.526.676.314 1.255.734 1.641 1.364.386.525.676 1.26.87 2.1.192.839.192 1.678.192 2.728v9.761h-4.054v-9.026c0-1.26-.193-2.31-.58-2.939-.386-.63-1.061-.945-2.027-.945-1.062 0-1.93.315-2.413 1.05-.483.735-.772 1.89-.772 3.464v8.291h-4.055V6.193h3.958zM108.601 23.3c-.193.84-.482 1.575-1.061 2.31-.483.735-1.255 1.26-2.317 1.784-.966.525-2.317.735-4.055.735-.675 0-1.448-.105-2.22-.315-.772-.21-1.448-.525-2.027-.945-.58-.42-1.159-.944-1.545-1.574-.386-.63-.676-1.47-.676-2.309h3.958c.193.84.58 1.364 1.062 1.68.58.314 1.159.524 1.931.524 1.158 0 1.93-.42 2.51-1.154.483-.735.772-1.68.772-2.834v-2.1h-.096c-.387.84-1.062 1.47-1.835 1.89-.772.42-1.64.63-2.51.63-1.061 0-2.027-.21-2.799-.63-.772-.42-1.448-.945-1.93-1.68-.483-.734-.87-1.574-1.159-2.519-.29-.944-.386-1.994-.386-3.043 0-1.05.096-1.995.386-2.94.29-.944.676-1.784 1.158-2.518.483-.735 1.159-1.26 1.931-1.785.772-.42 1.641-.63 2.703-.63.965 0 1.834.21 2.51.63.772.42 1.351 1.05 1.834 1.995h.097v-2.1h3.861v14.905c.193.42.097 1.154-.097 1.994m-5.502-5.353c.386-.21.772-.525 1.062-.945.29-.42.483-.84.676-1.364.096-.525.193-1.05.193-1.68 0-.63-.097-1.259-.193-1.889-.097-.63-.29-1.05-.58-1.574-.29-.42-.579-.84-1.061-1.05-.387-.315-.966-.42-1.642-.42-.579 0-1.061.105-1.448.42-.386.21-.772.63-1.061 1.05-.29.42-.483.944-.58 1.47-.096.524-.193 1.154-.193 1.679 0 .524.097 1.154.193 1.679.097.525.29 1.05.58 1.47.29.42.579.84.965 1.154.386.315.965.42 1.544.42.676 0 1.159-.105 1.545-.42M114.876 18.473c.193.315.386.63.676.84.29.21.58.42.965.524.386.105.773.105 1.159.105.29 0 .579 0 .869-.105l.868-.315c.29-.105.483-.315.676-.63.193-.21.29-.524.29-.944 0-.63-.386-1.155-1.159-1.47-.772-.314-1.93-.63-3.378-.944-.58-.105-1.159-.315-1.738-.525-.58-.21-1.062-.42-1.448-.735-.386-.314-.772-.734-1.062-1.154-.29-.42-.386-1.05-.386-1.784 0-1.05.193-1.89.58-2.52.385-.63.868-1.154 1.447-1.574.58-.42 1.255-.63 2.027-.84.773-.104 1.545-.21 2.317-.21.772 0 1.545.106 2.317.21.772.21 1.448.42 2.027.84.58.42 1.062.945 1.448 1.575.386.63.58 1.469.676 2.414h-3.861c-.097-.84-.386-1.365-.87-1.68-.482-.315-1.158-.42-1.833-.42h-.773c-.29 0-.482.105-.675.21-.193.105-.386.21-.58.42-.193.21-.193.42-.193.735 0 .42.097.735.387.944.29.21.579.42 1.061.63.483.21.87.315 1.448.42.58.105 1.062.21 1.642.42.579.105 1.158.315 1.737.525.58.21 1.062.525 1.448.84.386.314.772.734 1.062 1.259.29.525.386 1.154.386 1.89 0 1.049-.193 1.888-.579 2.623-.386.735-.869 1.26-1.545 1.68-.579.42-1.351.734-2.123.944-.773.21-1.641.21-2.414.21-.869 0-1.64-.105-2.51-.315-.772-.21-1.544-.525-2.123-.945-.676-.42-1.159-1.05-1.545-1.679-.386-.735-.58-1.574-.676-2.624h3.862c-.193.42-.097.84.096 1.155M8.205 27.394c0 .84.29 1.575.87 2.204.578.63 1.35.945 2.22.945 1.061 0 2.123-.525 3.185-1.574l-3.572-4.933c-1.834.734-2.703 1.889-2.703 3.358M14.384 17.318c0-.42-.193-.735-.483-1.05-.29-.314-.676-.42-1.062-.42s-.772.106-1.062.42c-.29.21-.482.525-.482.945 0 .42.386 1.155 1.255 2.204 1.158-.63 1.834-1.364 1.834-2.099M30.891 19.312c.772-1.154 1.255-1.889 1.255-2.204 0-.315-.193-.63-.483-.944-.29-.21-.675-.42-1.062-.42-.386 0-.772.105-1.061.42-.29.315-.483.63-.483 1.05.096.839.676 1.574 1.834 2.098M34.463 29.493c.58-.63.869-1.364.869-2.204 0-1.47-.966-2.624-2.8-3.463l-3.572 5.038c1.062 1.05 2.124 1.574 3.186 1.574.965 0 1.738-.315 2.317-.945M20.755 30.648h1.93l1.545-2.1c-.869-1.049-1.544-2.308-2.22-3.883h-.483c-.676 1.575-1.448 2.834-2.22 3.884l1.448 2.099z" transform="translate(.856 .347)"/>
        <path fill-rule="nonzero" d="M24.23 0l-.096 21.412c.579 1.364 1.351 2.728 2.316 4.303l2.607-3.674c-2.124-1.26-3.282-2.729-3.282-4.723 0-1.26.482-2.204 1.448-3.044.965-.84 2.124-1.154 3.572-1.154s2.606.42 3.571 1.154c.966.84 1.448 1.89 1.448 3.36 0 1.259-.482 2.518-1.448 3.778 1.931 1.05 3.186 1.994 3.958 3.043.773 1.05 1.159 2.205 1.159 3.569 0 1.68-.58 3.149-1.834 4.408-1.159 1.26-2.8 1.89-4.827 1.89-2.22 0-4.248-.84-5.985-2.624l-1.641 2.309H18.245l-1.641-2.31c-1.738 1.785-3.765 2.624-5.985 2.624-2.027 0-3.669-.63-4.827-1.889-1.158-1.26-1.834-2.729-1.834-4.408 0-1.364.386-2.519 1.158-3.569.773-1.05 2.124-2.099 3.958-3.043-.965-1.26-1.448-2.52-1.448-3.779 0-1.47.483-2.624 1.448-3.359.966-.84 2.22-1.154 3.572-1.154 1.448 0 2.606.42 3.572 1.154.965.84 1.448 1.785 1.448 3.044 0 1.89-1.062 3.464-3.282 4.723l2.606 3.674c.965-1.47 1.738-2.834 2.22-4.198V0C8.688 1.364.483 11.336.483 23.406c0 13.015 9.557 23.51 21.237 23.51 11.778 0 21.238-10.495 21.238-23.51 0-12.07-8.109-22.042-18.728-23.406M72.111 36.21c.387-1.049.58-2.098.676-3.148h-2.703c0 .525-.096 1.05-.193 1.47-.096.524-.29.944-.58 1.364l-2.316-2.939c.869-.525 1.545-1.155 1.93-1.784.483-.63.676-1.47.676-2.52 0-1.154-.386-2.098-1.158-2.728-.772-.735-1.738-1.05-2.8-1.05-1.254 0-2.22.42-2.992 1.155-.772.734-1.158 1.68-1.158 2.939 0 .63.096 1.26.386 1.784.29.63.579 1.154 1.062 1.68l-.29.21c-1.062.734-1.834 1.469-2.317 2.203-.483.735-.676 1.68-.676 2.73 0 1.259.483 2.413 1.448 3.358.966.945 2.22 1.47 3.862 1.47 1.062 0 2.027-.316 2.896-.735.483-.315.965-.63 1.448-1.26l1.158 1.47 3.765-.105L71.34 38.1c.193-.63.58-1.364.772-1.89m-7.433-8.606c.29-.21.483-.21.772-.21.483 0 .773.105 1.062.42.193.315.387.63.387.945 0 .524-.194.944-.58 1.364-.193.21-.482.525-.965.84-.483-.525-.772-.945-.869-1.155-.193-.315-.29-.63-.29-.944 0-.63.097-1.05.483-1.26m1.738 11.65c-.483.21-.966.42-1.448.42-.676 0-1.255-.21-1.641-.734-.483-.42-.676-.945-.676-1.575 0-.525.097-.944.386-1.364.29-.42.772-.945 1.545-1.47l2.992 3.884c-.29.315-.675.63-1.158.84M74.911 24.98L79.834 24.98 84.564 33.587 89.198 24.98 94.121 24.98 86.688 38.415 86.688 46.812 82.248 46.812 82.248 38.31zM91.515 35.476c.386-1.05.869-1.89 1.544-2.624.676-.735 1.448-1.26 2.317-1.68.966-.42 1.93-.629 3.09-.629 1.158 0 2.22.21 3.088.63.966.42 1.738.944 2.414 1.68.676.734 1.158 1.573 1.544 2.623.387 1.05.58 2.204.58 3.464 0 1.26-.193 2.414-.58 3.463-.386 1.05-.868 1.89-1.544 2.624-.676.735-1.448 1.26-2.414 1.68-.965.42-1.93.63-3.089.63-1.158 0-2.22-.21-3.089-.63-.869-.42-1.737-.945-2.317-1.68-.579-.734-1.158-1.574-1.544-2.624-.386-1.05-.58-2.204-.58-3.463.097-1.26.194-2.414.58-3.464zm3.668 5.353c.097.63.29 1.154.58 1.574.289.525.675.84 1.061 1.155.483.315 1.062.42 1.641.42.676 0 1.255-.105 1.738-.42.483-.315.869-.63 1.062-1.155.29-.524.483-1.05.58-1.574.096-.63.192-1.26.192-1.89 0-.63-.096-1.259-.193-1.889-.096-.63-.29-1.154-.58-1.574-.289-.42-.675-.84-1.061-1.155-.386-.314-1.062-.42-1.738-.42-.675 0-1.255.106-1.64.42-.483.315-.773.63-1.063 1.155-.29.42-.482 1.05-.579 1.574-.096.63-.193 1.26-.193 1.89 0 .63 0 1.26.193 1.889zM118.255 46.812v-2.205h-.097c-.482.945-1.158 1.575-1.93 1.995-.773.42-1.641.63-2.51.63-1.062 0-1.93-.106-2.607-.42-.675-.315-1.255-.735-1.64-1.26-.387-.525-.676-1.26-.87-2.1-.193-.839-.193-1.678-.193-2.623v-9.761h3.958v8.921c0 1.26.193 2.31.58 2.94.386.629 1.061.944 2.027.944 1.062 0 1.834-.315 2.317-1.05.482-.735.772-1.89.772-3.463v-8.292h3.958v15.849l-3.765-.105z" transform="translate(.856 .347)"/>
        <text font-family="Lato-Heavy, Lato" font-size="5" font-weight="600" letter-spacing="-.003" transform="translate(.856 .347)">
            <tspan x="125.495" y="9.198">®</tspan>
        </text>
    </g>
</svg>
