<svg xmlns="http://www.w3.org/2000/svg" xmlns:xlink="http://www.w3.org/1999/xlink" width="39" height="39" viewBox="0 0 39 39">
<style type="text/css">
	.st0{fill-rule:evenodd;clip-rule:evenodd;fill:#00A192;}
	.st1{fill-rule:evenodd;clip-rule:evenodd;fill:#FFFFFF;}
</style>
<g>
	<g>
		<path id="prefix__a" class="st0" d="M19.8,0.8c10.5,0,18.9,8.5,18.9,18.9s-8.5,18.9-18.9,18.9c-10.5,0-18.9-8.5-18.9-18.9
			S9.3,0.8,19.8,0.8z"/>
	</g>
</g>
<path class="st1" d="M24.6,12.3c-2.5,0-4.5,2-4.5,4.5c0,0.4,0,0.7,0.1,1c-3.8-0.2-7.1-2-9.3-4.7c-0.4,0.7-0.6,1.4-0.6,2.3
	c0,1.6,0.8,3,2,3.8c-0.7,0-1.4-0.2-2.1-0.6v0.1c0,2.2,1.6,4,3.6,4.4c-0.4,0.1-0.8,0.2-1.2,0.2c-0.3,0-0.6,0-0.9-0.1
	c0.6,1.8,2.2,3.1,4.2,3.1c-1.6,1.2-3.5,1.9-5.6,1.9c-0.4,0-0.7,0-1.1-0.1c2,1.3,4.4,2,6.9,2c8.3,0,12.9-6.9,12.9-12.9
	c0-0.2,0-0.4,0-0.6c0.9-0.6,1.7-1.4,2.3-2.3c-0.8,0.4-1.7,0.6-2.6,0.7c0.9-0.6,1.7-1.4,2-2.5c-0.9,0.5-1.8,0.9-2.9,1.1
	C27.1,12.9,25.9,12.3,24.6,12.3z"/>
</svg>
